PathFileType	4	(X/Y/Z)	7_coords_data.trc
DataRate	CameraRate	NumFrames	NumMarkers	Units	OrigDataRate	OrigDataStartFrame	OrigNumFrames
30.0	30.0	8	21	m	30.0	28	65
Frame#	Time	THUMB_TIP	THUMB_IP	THUMB_MCP	THUMB_CMC	INDEX_TIP	INDEX_DIP	INDEX_PIP	INDEX_MCP	MIDDLE_TIP	MIDDLE_DIP	MIDDLE_PIP	MIDDLE_MCP	RING_TIP	RING_DIP	RING_PIP	RING_MCP	PINKY_TIP	PINKY_DIP	PINKY_PIP	PINKY_MCP	WRIST
X1	Y1	Z1	X2	Y2	Z2	X3	Y3	Z3	X4	Y4	Z4	X5	Y5	Z5	X6	Y6	Z6	X7	Y7	Z7	X8	Y8	Z8	X9	Y9	Z9	X10	Y10	Z10	X11	Y11	Z11	X12	Y12	Z12	X13	Y13	Z13	X14	Y14	Z14	X15	Y15	Z15	X16	Y16	Z16	X17	Y17	Z17	X18	Y18	Z18	X19	Y19	Z19	X20	Y20	Z20	X21	Y21	Z21
26	0.8999999999999961	0.46935142133780994	-0.0411575290144367	-0.17338391449064272	0.47489520167995314	-0.0430772546751339	-0.1511672281286821	0.4662819093694567	-0.040310583029673164	-0.12138507368041995	0.46861269933229566	-0.03519598943698199	-0.0771324087829165	0.5617821740026527	0.028166270479926037	-0.177973317848166	0.5505515933195255	0.01979498492094267	-0.16649308981864813	0.5355332241667882	0.008101447373016546	-0.15006994759167624	0.5112792645906898	-0.009038705401630986	-0.11954787849826876	0.5820371203040227	0.060471879336363665	-0.13851991889235626	0.5685277255903601	0.051665064165881014	-0.1302775732903192	0.5479672637406943	0.034732612260984896	-0.11844672247489518	0.5218756637130244	0.0027740377851572795	-0.101299540593633	0.5965691987389883	0.048297235000657746	-0.10193590827427512	0.5818076138043456	0.03945873520049381	-0.09655292290369921	0.5631988380531401	0.024083887568534745	-0.09042858585097346	0.5334625109217592	-0.0020020735620072116	-0.08206232535829483	0.5998601339359946	0.017775514190433994	-0.04172612245010765	0.5849245388281705	0.010385632596192407	-0.04563989924474321	0.5666197014445797	0.001587383124245667	-0.05096303305761074	0.5345372137735063	-0.011014142878470912	-0.0615837193931672	0.4622830810018609	-0.023011742144276925	-0.051989820119430985
27	0.9333333333333294	0.4692680598841502	-0.04088029021890105	-0.1734091301178896	0.47482701589514553	-0.04286848380705688	-0.151202259687236	0.4662387131269753	-0.04021539164699239	-0.12140255905866526	0.4686140694818972	-0.035170871271011483	-0.077144220902297	0.5615790977669379	0.028402776093826354	-0.17806081360368492	0.5503868642468213	0.019988710132823995	-0.16657441282558744	0.5354060620933365	0.008262634968313809	-0.15014016319031653	0.5111807692464556	-0.008850079214109519	-0.11957995550460943	0.5817008533748361	0.06093498029783939	-0.13854464772473019	0.5682330615431936	0.05205971179009283	-0.13030764632282754	0.5477459940365565	0.03503706626245029	-0.11847890360778268	0.5217481706180309	0.0030007415595328935	-0.10133437100906728	0.5962429751774907	0.04875858542640876	-0.10217591229488099	0.5814976376912682	0.03992638493764977	-0.0967383340707294	0.5629582519749607	0.024494346977827264	-0.0905477476147808	0.5333648338528227	-0.00172762565124418	-0.08210034628132024	0.5997485772187148	0.01825773341564263	-0.04183834092165306	0.5848491214481673	0.010795946263382872	-0.045753433543273325	0.5665571548770909	0.00195315024643683	-0.0510469141151948	0.534481304210332	-0.010707908702192515	-0.06161672212211333	0.462283081001861	-0.023011742144276925	-0.051989820119430985
28	0.9666666666666625	0.4691745154246335	-0.04054453011134029	-0.17344598095567332	0.4747523775605874	-0.04261178525546416	-0.15125107365328994	0.46618577281386453	-0.0400869225042737	-0.12143399211935924	0.4686062323581113	-0.03512378364517743	-0.0771688971995469	0.5614372607291094	0.028647881342864445	-0.17809109082139812	0.5502806677339178	0.020186221777308777	-0.16660497963717724	0.535324552198849	0.00842674049985348	-0.15017211496948013	0.5110992298514737	-0.008664035207754273	-0.11959965617274582	0.5815061434307697	0.06131371813940367	-0.1384342784664283	0.5680601600911943	0.052387552361828016	-0.130216669535413	0.5476136762658013	0.03528663617705363	-0.11843068146400981	0.5216609367466788	0.003183629315905989	-0.10134266862091723	0.5960279934369648	0.04912711174907036	-0.10224585035673772	0.5812886866438641	0.04029442426267926	-0.09679273500616903	0.5628072167826744	0.02479930698810795	-0.09058656135268317	0.5332930513918617	-0.0015023353102675552	-0.0821096227725081	0.5996235894103441	0.01866482665145841	-0.04185910627932132	0.5847717288356621	0.011118302467222896	-0.04579257932574654	0.5664993366289348	0.002226705990226785	-0.051071898802137805	0.5344390348062084	-0.010477791438843864	-0.061636757680060494	0.462283081001861	-0.023011742144276925	-0.051989820119430985
29	0.9999999999999956	0.46911396617315715	-0.04021786018718565	-0.17349444001640135	0.4746984830511545	-0.04234716593097143	-0.15130707360466056	0.4661684841863649	-0.039948469188282654	-0.12146908819506386	0.4685976156366152	-0.03507489133021391	-0.0771945180756517	0.5612818657691255	0.028978601782667313	-0.17809097085167908	0.5501654221317307	0.020457937309544483	-0.1666095529168991	0.5352473197968319	0.008646819748415191	-0.15017916772108986	0.5110401360695856	-0.008452370981259505	-0.11959704833106788	0.5813620636461627	0.06169104530290148	-0.13825255356241772	0.5679258371940067	0.05272502264638246	-0.13006242191212247	0.5475078865898342	0.03555198538493909	-0.11833196436168347	0.521590592122027	0.003378101497611974	-0.1013236439250923	0.5958287800513975	0.049531621633104206	-0.10219282914510686	0.5811048897576397	0.04066834523304286	-0.09674770416274814	0.5626780694358695	0.02509946709269728	-0.0905636678368309	0.5332283882527805	-0.0012792071617941936	-0.08210183252823189	0.5994504863737511	0.019138122182501105	-0.04181060377941881	0.5846637426889264	0.011481067506257325	-0.04577566681603107	0.5664309108100045	0.002512972711300576	-0.05106236109730333	0.5344025065964023	-0.010266686661978386	-0.06163331568206465	0.4622830810018609	-0.023011742144276925	-0.051989820119430985
30	1.0333333333333288	0.4690622091745337	-0.03988340292837522	-0.1735340791467535	0.47466180685112214	-0.04209017114594871	-0.15135808582302046	0.46615753692558537	-0.039804840007640285	-0.12150386242628997	0.4685893555428966	-0.03502820352008884	-0.07721887623369539	0.5611890411427054	0.02927929176519617	-0.17803904503498807	0.550112159515018	0.02069597502538778	-0.1665660608046176	0.5352215297991003	0.008835732464204105	-0.15014614527336978	0.5110218094904911	-0.008296204254257589	-0.11957644826375391	0.581378984453466	0.06192253860682251	-0.13796488436307797	0.5679263711266752	0.052940999281873014	-0.1298187720366839	0.5475047231642252	0.03571808245195662	-0.11816815057825725	0.5215799966754386	0.0034883788643219615	-0.101277245210728	0.5957607487413219	0.049780699864311884	-0.10199512062875304	0.5810400414667389	0.040887918089505315	-0.09658964103470158	0.5626466348631372	0.025255725071420265	-0.09046615232646382	0.5332057574470285	-0.0011513928654990346	-0.0820625999088671	0.5992569839280968	0.01952252500230245	-0.041639670665901796	0.5845530663166105	0.011739796763962307	-0.04566756689628926	0.56636874156872	0.0026896207725858323	-0.050981385390401535	0.5343879845633512	-0.010164460936719522	-0.061606224955028765	0.4622830810018609	-0.023011742144276925	-0.051989820119430985
31	1.0666666666666622	0.46904618225358297	-0.039541428892812425	-0.17357442679911983	0.4746530244601548	-0.04182342993990418	-0.15140788011968243	0.46617174538671613	-0.039643207036678896	-0.12153925890325024	0.46860331550116185	-0.03496945942943286	-0.07724328222271748	0.5611590281712768	0.029658696079672198	-0.17789166257744343	0.5501192001815212	0.020999852515483197	-0.16643973583616928	0.5352630363264745	0.009064566021640075	-0.1500429933297477	0.511074226285307	-0.008136886176282832	-0.11950371362188794	0.5814711222981596	0.062216827792974105	-0.13746867880959557	0.568012887978336	0.0531796897466581	-0.12939365156973115	0.5475958611153156	0.0358608634827996	-0.11787788755178652	0.5216359490327483	0.0035648883902937856	-0.10116858240496429	0.5957881221359269	0.049961245034915724	-0.10160311594106619	0.5810731571006811	0.041014785532552556	-0.09627107445735039	0.5627124245146186	0.025302807252247872	-0.0902546622023318	0.5332318365700164	-0.0010942093728634195	-0.08195928507201478	0.5990577834631947	0.019811889168106056	-0.04129437146599946	0.5844481470557126	0.011899815628483301	-0.045412334110896624	0.5663243182081221	0.0027670159805696093	-0.05079107164811836	0.5343945837150215	-0.01013262057924913	-0.06151370578459292	0.4622830810018609	-0.023011742144276925	-0.051989820119430985
32	1.0999999999999952	0.4690421767160581	-0.03918170246668784	-0.1736185413202832	0.47465531680944073	-0.04154687809270363	-0.15146230963368623	0.4661922397308741	-0.03946430561221537	-0.12158155967278739	0.4686189601456342	-0.03489518626315857	-0.07727440250374007	0.5610572973986073	0.03023928471395443	-0.17767729355400685	0.5500841805873193	0.021464591839942315	-0.16624945594522939	0.5353044232378328	0.009390984548018122	-0.14988496351036618	0.5111865355120214	-0.007985855095256955	-0.11938891409971208	0.5812708480477788	0.06285663404538966	-0.1368975367681241	0.5678838518793509	0.05364511862672161	-0.12890151792884308	0.5475946705132722	0.036085783297359564	-0.11752485707051652	0.5217437397551095	0.003597595819254895	-0.10102046449386581	0.5956844068217442	0.050304347395458415	-0.1011038842489197	0.5810201980264109	0.04122174889354113	-0.09586295066225392	0.5627535111057785	0.02535008587629961	-0.08998090671386894	0.5332911904956447	-0.0011128985460233665	-0.08183210595979595	0.598799014335413	0.02011303486931959	-0.040823895589972015	0.5843037133500943	0.012050329754885514	-0.04505225645237465	0.566269240877689	0.0028026112187719	-0.05053400102129346	0.5344154582613465	-0.010165361859820754	-0.061399159016633176	0.462283081001861	-0.023011742144276925	-0.051989820119430985
33	1.1333333333333284	0.46909433068301576	-0.03886590323368344	-0.1736368849356527	0.47474528992863385	-0.04131151521039622	-0.15149900695099194	0.4662976155625689	-0.0393287624756159	-0.12160711023302428	0.46866083408010295	-0.03484392679441295	-0.07728791070109464	0.5607920474832808	0.031189719204131938	-0.17736074403181512	0.5499382530190022	0.022217666854648543	-0.16597226641778218	0.5353081004983891	0.009897720414834721	-0.14965701619157634	0.5113573119050068	-0.00782541323254271	-0.11922863546777984	0.5807504961249541	0.06386462025421824	-0.1363276031854237	0.5675022167025291	0.05438806110783345	-0.12841066444052873	0.5474570150767806	0.03647067185403141	-0.11716048203708151	0.5218651085956402	0.0036962940479394746	-0.10081904993692203	0.5951831379370942	0.051205459125702846	-0.10050194795520606	0.580642175675582	0.041870451259124364	-0.09536209925702444	0.5626137711362553	0.025675787061603228	-0.08962716592734088	0.5333567912623504	-0.0010623018792018657	-0.08163813829867805	0.5981927468599914	0.02113220992329412	-0.040142609851378075	0.5838972460017866	0.012790259202494436	-0.044507299231485	0.5660589270777658	0.003243985527228488	-0.05011756267287937	0.5344259832424496	-0.01007834179178324	-0.06119708929258838	0.4622830810018609	-0.023011742144276925	-0.051989820119430985
